<?xml version="1.0" encoding="UTF-8" standalone="no"?>
<svg width="27px" height="30px" viewBox="0 0 27 30" version="1.1" xmlns="http://www.w3.org/2000/svg" xmlns:xlink="http://www.w3.org/1999/xlink">
    <!-- Generator: Sketch 45.2 (43514) - http://www.bohemiancoding.com/sketch -->
    <title>Fill 50</title>
    <desc>Created with Sketch.</desc>
    <defs></defs>
    <g id="Page-1" stroke="none" stroke-width="1" fill="none" fill-rule="evenodd">
        <path d="M-0.646068819,27.027 C-1.09306882,26.34 -1.11806882,25.469 -0.713068819,24.756 L-0.406068819,24.216 L11.3819312,3.534 L11.6469312,3.093 C12.0379312,2.409 12.7299312,2 13.4989312,2 C14.2679312,2 14.9609312,2.409 15.3519312,3.093 L15.6199312,3.563 L27.4439312,24.276 L27.7129312,24.758 C28.0209312,25.297 28.0839312,25.944 27.8869312,26.534 C27.6879312,27.129 27.2579312,27.595 26.6769312,27.842 C26.4369312,27.944 26.1679312,27.998 25.8789312,27.998 L25.3179312,27.998 L12.2139312,27.998 L11.8939312,27.993 C11.1669312,27.988 10.4779312,27.618 10.0939312,27.027 C9.74193118,26.485 9.64693118,25.82 9.83393118,25.203 C10.0209312,24.585 10.4699312,24.079 11.0679312,23.826 C11.3079312,23.724 11.5769312,23.665 11.8679312,23.665 L12.4269312,23.665 L22.1399312,23.665 L13.4999312,8.513 L3.00893118,26.915 C2.77193118,27.332 2.41193118,27.65 1.96893118,27.839 C1.71693118,27.946 1.44693118,28 1.16693118,28 C0.438931181,28 -0.256068819,27.628 -0.646068819,27.027" id="Fill-50" fill="#FFFFFF" transform="translate(13.499855, 15.000000) rotate(-270.000000) translate(-13.499855, -15.000000) "></path>
    </g>
</svg>